<svg xmlns="http://www.w3.org/2000/svg" width="48" height="48" viewBox="0 0 48 48" fill="none" stroke="currentColor" stroke-width="3.4" stroke-linecap="round" stroke-linejoin="round">
  <path d="M 24 17 C 28 16.9, 30.7 19.5, 30.7 23.5 C 30.7 27.4, 28.1 30, 24.1 30 C 20.2 30, 17.5 27.5, 17.5 23.6 C 17.5 19.7, 20.1 17.1, 24 17 Z"/>
  <path d="M 24 8.5 C 24 10.3, 24 12, 24 13.6"/>
  <path d="M 24 33.5 C 24 35.2, 24 36.9, 24 38.6"/>
  <path d="M 8.9 23.5 C 10.7 23.5, 12.4 23.5, 14 23.5"/>
  <path d="M 34 23.5 C 35.7 23.5, 37.4 23.5, 39.1 23.5"/>
  <path d="M 13.2 12.8 C 14.5 14, 15.7 15.2, 16.9 16.5"/>
  <path d="M 31.1 30.6 C 32.3 31.8, 33.5 33, 34.7 34.3"/>
  <path d="M 34.8 12.9 C 33.5 14.1, 32.3 15.3, 31.1 16.6"/>
  <path d="M 16.9 30.7 C 15.7 31.9, 14.4 33.1, 13.2 34.4"/>
</svg>
