<svg xmlns="http://www.w3.org/2000/svg" width="96" height="96" viewBox="0 0 48 48">
  <style>
    path {
      fill: none; stroke: #2b2a33; stroke-width: 3.4;
      stroke-linecap: round; stroke-linejoin: round;
      stroke-dasharray: 1; stroke-dashoffset: 1; visibility: hidden;
      animation-name: draw; animation-timing-function: cubic-bezier(.65,.05,.36,1);
      animation-fill-mode: forwards;
    }
    @keyframes draw {
      from { visibility: visible }
      to { visibility: visible; stroke-dashoffset: 0 }
    }
  </style>
  <filter id="boil" x="-30%" y="-30%" width="160%" height="160%">
    <feTurbulence type="fractalNoise" baseFrequency="0.055" numOctaves="2" seed="1" result="noise">
      <animate attributeName="seed" values="1;2;3;4;5;6" dur="0.55s" repeatCount="indefinite" calcMode="discrete"/>
    </feTurbulence>
    <feDisplacementMap in="SourceGraphic" in2="noise" scale="1.6" xChannelSelector="R" yChannelSelector="G"/>
  </filter>
  <g filter="url(#boil)">
    <rect width="48" height="48" fill="none"/>
    <path pathLength="1" style="animation-duration:0.55s;animation-delay:0.00s" d="M 24 8 C 30.5 8, 35 12.6, 35 18.5 C 35 22.5, 32.7 25.2, 30.5 27.5 C 29.6 28.5, 29 29.8, 28.8 31 C 25.7 31.3, 22.5 31.3, 19.3 31 C 19.1 29.8, 18.5 28.5, 17.6 27.5 C 15.4 25.2, 13 22.5, 13 18.5 C 13 12.6, 17.5 8, 24 8 Z"/>
    <path pathLength="1" style="animation-duration:0.16s;animation-delay:0.39s" d="M 24 13.2 C 26.3 13.3, 27.6 15, 27.2 17.1 C 26.8 19, 25.1 20.1, 23.2 19.6 C 21.4 19.1, 20.5 17.4, 21 15.6 C 21.4 14.1, 22.5 13.2, 24 13.2 Z"/>
    <path pathLength="1" style="animation-duration:0.15s;animation-delay:0.50s" d="M 24 21.8 C 24 24.6, 24 27.5, 24 30.3"/>
    <path pathLength="1" style="animation-duration:0.15s;animation-delay:0.60s" d="M 20 34.4 C 22.6 34.8, 25.4 34.8, 28 34.4"/>
    <path pathLength="1" style="animation-duration:0.15s;animation-delay:0.71s" d="M 21 38.6 C 23 39, 25 39, 27 38.6"/>
  </g>
</svg>
