<svg xmlns="http://www.w3.org/2000/svg" width="96" height="96" viewBox="0 0 48 48">
  <style>
    path {
      fill: none; stroke: #2b2a33; stroke-width: 3.4;
      stroke-linecap: round; stroke-linejoin: round;
      animation-name: draw;
      animation-timing-function: cubic-bezier(.65,.05,.36,1);
      animation-fill-mode: backwards;
    }
    /* drawn is the resting state; the animation hides the ink and puts it
       back, so a still render shows the finished icon, not nothing */
    @keyframes draw {
      from { stroke-dasharray: 1; stroke-dashoffset: 1 }
      to { stroke-dasharray: 1; stroke-dashoffset: 0 }
    }
    @media (prefers-reduced-motion: reduce) { path { animation: none } }
  </style>
  <filter id="boil" x="-30%" y="-30%" width="160%" height="160%">
    <feTurbulence type="fractalNoise" baseFrequency="0.055" numOctaves="2" seed="1" result="noise">
      <animate attributeName="seed" values="1;2;3;4;5;6" dur="0.86s" repeatCount="indefinite" calcMode="discrete"/>
    </feTurbulence>
    <feDisplacementMap in="SourceGraphic" in2="noise" scale="4" xChannelSelector="R" yChannelSelector="G"/>
  </filter>
  <g filter="url(#boil)">
    <rect width="48" height="48" fill="none"/>
    <path pathLength="1" style="animation-duration:0.15s;animation-delay:0.00s" d="M 19.5 10.5 C 19.7 12.9, 19.7 15.2, 19.4 17.5 C 17.1 17.8, 14.8 17.8, 12.4 17.6"/>
    <path pathLength="1" style="animation-duration:0.15s;animation-delay:0.10s" d="M 28.5 10.5 C 28.3 12.9, 28.3 15.2, 28.6 17.5 C 30.9 17.8, 33.2 17.8, 35.6 17.6"/>
    <path pathLength="1" style="animation-duration:0.15s;animation-delay:0.21s" d="M 35.6 30.4 C 33.2 30.2, 30.9 30.2, 28.6 30.5 C 28.3 32.8, 28.3 35.1, 28.5 37.5"/>
    <path pathLength="1" style="animation-duration:0.15s;animation-delay:0.32s" d="M 12.4 30.4 C 14.8 30.2, 17.1 30.2, 19.4 30.5 C 19.7 32.8, 19.7 35.1, 19.5 37.5"/>
  </g>
</svg>
