<svg xmlns="http://www.w3.org/2000/svg" width="96" height="96" viewBox="0 0 48 48">
  <style>
    path {
      fill: none; stroke: #2b2a33; stroke-width: 3.4;
      stroke-linecap: round; stroke-linejoin: round;
      animation-name: draw;
      animation-timing-function: cubic-bezier(.65,.05,.36,1);
      animation-fill-mode: backwards;
    }
    /* drawn is the resting state; the animation hides the ink and puts it
       back, so a still render shows the finished icon, not nothing */
    @keyframes draw {
      from { stroke-dasharray: 1; stroke-dashoffset: 1 }
      to { stroke-dasharray: 1; stroke-dashoffset: 0 }
    }
    @media (prefers-reduced-motion: reduce) { path { animation: none } }
  </style>
  <filter id="boil" x="-30%" y="-30%" width="160%" height="160%">
    <feTurbulence type="fractalNoise" baseFrequency="0.055" numOctaves="2" seed="1" result="noise">
      <animate attributeName="seed" values="1;2;3;4;5;6" dur="0.86s" repeatCount="indefinite" calcMode="discrete"/>
    </feTurbulence>
    <feDisplacementMap in="SourceGraphic" in2="noise" scale="4" xChannelSelector="R" yChannelSelector="G"/>
  </filter>
  <g filter="url(#boil)">
    <rect width="48" height="48" fill="none"/>
    <path pathLength="1" style="animation-duration:0.26s;animation-delay:0.00s" d="M 37.5 21.5 C 36.2 15, 30.8 10.8, 24.3 11 C 18.9 11.2, 14.4 14.4, 12.3 19"/>
    <path pathLength="1" style="animation-duration:0.15s;animation-delay:0.18s" d="M 31.5 21.8 C 33.6 21.9, 35.6 21.8, 37.7 21.5 C 38 19.4, 38.1 17.3, 38 15.2"/>
    <path pathLength="1" style="animation-duration:0.26s;animation-delay:0.29s" d="M 10.5 26.5 C 11.8 33, 17.2 37.2, 23.7 37 C 29.1 36.8, 33.6 33.6, 35.7 29"/>
    <path pathLength="1" style="animation-duration:0.15s;animation-delay:0.47s" d="M 16.5 26.2 C 14.4 26.1, 12.4 26.2, 10.3 26.5 C 10 28.6, 9.9 30.7, 10 32.8"/>
  </g>
</svg>
