<svg xmlns="http://www.w3.org/2000/svg" width="96" height="96" viewBox="0 0 48 48">
  <style>
    path {
      fill: none; stroke: #2b2a33; stroke-width: 3.4;
      stroke-linecap: round; stroke-linejoin: round;
      animation-name: draw;
      animation-timing-function: cubic-bezier(.65,.05,.36,1);
      animation-fill-mode: backwards;
    }
    /* drawn is the resting state; the animation hides the ink and puts it
       back, so a still render shows the finished icon, not nothing */
    @keyframes draw {
      from { stroke-dasharray: 1; stroke-dashoffset: 1 }
      to { stroke-dasharray: 1; stroke-dashoffset: 0 }
    }
    @media (prefers-reduced-motion: reduce) { path { animation: none } }
  </style>
  <filter id="boil" x="-30%" y="-30%" width="160%" height="160%">
    <feTurbulence type="fractalNoise" baseFrequency="0.055" numOctaves="2" seed="1" result="noise">
      <animate attributeName="seed" values="1;2;3;4;5;6" dur="0.86s" repeatCount="indefinite" calcMode="discrete"/>
    </feTurbulence>
    <feDisplacementMap in="SourceGraphic" in2="noise" scale="4" xChannelSelector="R" yChannelSelector="G"/>
  </filter>
  <g filter="url(#boil)">
    <rect width="48" height="48" fill="none"/>
    <path pathLength="1" style="animation-duration:0.62s;animation-delay:0.00s" d="M 9 33.5 C 12.8 24.7, 17 16.2, 21.7 8.2 C 22.6 6.7, 23.8 6.9, 24.2 8.6 C 25.8 15.4, 22.9 25.4, 17.8 31.8 C 16.4 33.5, 15.3 33.2, 15.2 31 C 15.2 28.4, 16.4 26.5, 18.8 25.7 C 21.5 24.8, 23.6 26, 25.6 28.9 C 26.7 30.5, 28 30.6, 29.5 29.3"/>
    <path pathLength="1" style="animation-duration:0.15s;animation-delay:0.44s" d="M 32.5 30 C 34.7 29.8, 36.8 29.8, 39 30"/>
  </g>
</svg>
